<svg id="trident" xmlns="http://www.w3.org/2000/svg" xmlns:xlink="http://www.w3.org/1999/xlink" viewBox="0 0 169.74 125.97"><defs><style>.cls-1{stroke:#231815;stroke-miterlimit:10;fill:url(#未命名的渐变_31);}</style><linearGradient id="未命名的渐变_31" x1="208.76" y1="51.91" x2="208.76" y2="156.94" gradientTransform="translate(-121.28 -36.22)" gradientUnits="userSpaceOnUse"><stop offset="0" stop-color="#2ea7e0"/><stop offset="0.28" stop-color="#418acc"/><stop offset="0.87" stop-color="#73429a"/><stop offset="1" stop-color="#7e318e"/></linearGradient></defs><title>trident-ico</title><path class="cls-1" d="M3.34,14.78a11.34,11.34,0,0,1,1-7.34A10.38,10.38,0,0,1,9.16,2.87C11.88,1.9,17,2.54,18.67,5c1.81,2.65,4.48,9.34,4.48,9.34l16.35,38s4.78,11.53,5.68,12.92,4.54,4.23,5.37,4.81a17.51,17.51,0,0,0,7.1,2.08A16.24,16.24,0,0,0,66.13,69c1.87-1.59,4.16-5.75,4.54-6.86s6.79-44.61,6.79-44.61,1.42-5.91,2.44-7.55S84,5.32,87,5.22a9.49,9.49,0,0,1,6,2.2,10.17,10.17,0,0,1,3.14,4.64,40.41,40.41,0,0,1,1.39,6.25c0.12,0.62,6.61,42,7.2,43.3a50.33,50.33,0,0,0,5.13,7.31,22.17,22.17,0,0,0,8.73,2.81c2.84,0,5.78-1.77,6.86-2.49a30.2,30.2,0,0,0,5.33-5c0.73-1.21,21.06-50.15,21.06-50.15s3.7-7.72,5.31-9.25,5.77-2.6,8.4-2a7.46,7.46,0,0,1,5.3,4.33c0.8,2,1.3,9.12.8,11.74l-9.84,50.84s-6.3,32.31-6.79,34.42-3.69,5.75-6.16,7.62-5,2.35-8.52,2.42a23.18,23.18,0,0,1-11.84-3.95c-2.68-2.06-4.71-5.93-4.92-7.69s-0.77-6.89-1.14-9.57-6.09-5.39-9.52-5.25-8,3.6-8.17,6.37-0.83,17-.9,20.09-4.57,8.24-6.16,9.84-4,3.32-9,3.32a16.15,16.15,0,0,1-11.08-3.88c-2.58-2.25-6.36-5.21-6.37-8.17s-0.07-14.2-.07-15.45A38.45,38.45,0,0,0,69,91.15c-0.87-1.84-3.22-2.84-6.55-3s-4.29.21-5.61,1.25-3.67,3.19-4.23,6a26.34,26.34,0,0,0-.45,6c-0.07,2.56-3.74,8-5.3,9.25a25.58,25.58,0,0,1-10.11,3.55c-3.19.19-9.3-1.67-10.53-2.75s-5.68-6.33-6-7.76S3.89,17.76,3.34,14.78Z" transform="translate(-2.61 -1.94)"/></svg>